<?xml version="1.0" standalone="no"?>
<!DOCTYPE svg PUBLIC "-//W3C//DTD SVG 20010904//EN"
 "http://www.w3.org/TR/2001/REC-SVG-20010904/DTD/svg10.dtd">
<svg version="1.0" xmlns="http://www.w3.org/2000/svg"
 width="920.000000pt" height="920.000000pt" viewBox="0 0 920.000000 920.000000"
 preserveAspectRatio="xMidYMid meet">
<metadata>
Created by potrace 1.16, written by Peter Selinger 2001-2019
</metadata>
<g transform="translate(0.000000,920.000000) scale(0.100000,-0.100000)"
fill="#000000" stroke="none">
<path d="M3085 8400 c-62 -26 -277 -299 -379 -480 -50 -88 -191 -374 -228
-459 -22 -52 -43 -101 -48 -110 -5 -9 -32 -81 -60 -161 -29 -80 -56 -154 -60
-165 -18 -44 -70 -216 -94 -308 -14 -54 -28 -103 -32 -108 -3 -5 -9 -30 -14
-57 -5 -26 -16 -76 -24 -112 -50 -225 -85 -411 -95 -515 -5 -44 -13 -111 -20
-150 -26 -167 -41 -422 -41 -678 0 -253 -1 -271 -21 -315 -68 -147 -76 -168
-108 -262 -42 -122 -72 -243 -115 -465 -25 -128 -89 -360 -126 -455 -12 -30
-26 -71 -32 -90 -5 -19 -14 -39 -19 -45 -5 -5 -9 -17 -9 -26 0 -9 -7 -30 -15
-45 -8 -16 -15 -36 -15 -45 0 -8 -7 -24 -15 -35 -8 -10 -15 -31 -15 -46 0 -15
-6 -42 -14 -60 -68 -156 -67 -513 2 -635 6 -12 12 -27 12 -34 0 -22 71 -161
132 -257 80 -125 151 -216 265 -340 l96 -104 -6 -116 c-5 -120 -19 -211 -43
-294 -8 -26 -14 -55 -14 -64 0 -16 -31 -122 -50 -169 -4 -11 -16 -42 -25 -70
-10 -27 -25 -68 -35 -90 -9 -22 -25 -60 -36 -85 -30 -72 -215 -433 -230 -451
-8 -9 -31 -21 -52 -27 -90 -27 -167 -80 -293 -199 -53 -51 -101 -93 -107 -93
-5 0 -38 56 -72 125 -71 143 -97 180 -149 201 -20 8 -50 28 -66 44 -17 16 -45
32 -62 36 -27 5 -37 2 -60 -23 -38 -40 -121 -156 -132 -185 -18 -47 -32 -211
-25 -295 l7 -83 53 0 54 0 0 43 c0 31 3 38 10 27 5 -8 10 -27 10 -42 0 -27 2
-28 50 -28 l50 0 0 48 c0 26 -7 88 -15 137 -17 100 -20 232 -6 254 19 29 41
-43 42 -136 0 -48 4 -108 9 -133 4 -25 13 -73 20 -107 l12 -63 49 0 49 0 -6
82 c-3 46 -10 99 -15 118 -9 37 -11 135 -2 110 3 -8 11 -22 17 -30 7 -8 29
-55 50 -105 21 -50 45 -104 52 -122 8 -17 14 -36 14 -42 0 -7 23 -11 60 -11
64 0 66 1 49 32 -10 18 0 32 97 128 177 173 280 230 420 230 81 0 167 -25 244
-70 62 -37 78 -37 86 -4 5 21 -1 33 -35 68 -23 24 -63 53 -89 65 -26 12 -55
27 -65 32 -10 6 -41 13 -68 16 -27 3 -49 11 -48 17 0 6 10 30 22 53 35 68 168
336 178 358 41 95 82 207 109 295 48 160 48 161 59 230 6 36 15 81 21 100 5
19 10 55 10 80 0 52 9 90 21 90 4 0 28 -17 52 -37 68 -59 167 -136 202 -158
18 -11 45 -30 61 -43 44 -35 92 -64 174 -106 41 -21 82 -43 90 -47 8 -5 22
-12 30 -15 8 -3 29 -12 45 -19 17 -7 47 -16 67 -19 30 -6 39 -3 47 12 12 23
-7 43 -84 88 -27 16 -58 33 -67 39 -202 117 -348 223 -582 423 -70 60 -179
175 -276 292 -82 99 -184 255 -176 269 3 5 30 12 59 16 125 17 231 106 297
248 35 77 41 101 46 180 8 112 -6 188 -47 272 -29 59 -121 165 -142 165 -6 0
-18 7 -27 15 -21 19 -143 55 -187 55 -42 0 -46 10 -27 62 111 304 151 444 209
733 13 64 22 104 55 235 7 25 16 54 20 65 5 11 12 31 15 45 19 74 121 294 161
347 13 17 24 34 24 37 0 7 55 87 111 161 52 69 62 98 40 112 -27 17 -75 -11
-139 -83 -31 -35 -60 -61 -64 -58 -11 7 -9 173 2 304 5 58 12 148 15 200 9
155 40 407 75 605 6 33 15 87 21 120 5 33 13 73 18 90 5 16 19 75 31 130 12
55 26 111 31 125 4 14 11 42 15 63 3 20 10 39 14 42 5 3 11 24 15 48 6 36 51
187 75 252 4 11 16 43 26 70 27 76 114 150 279 235 62 32 97 45 220 81 38 11
162 15 171 6 4 -4 8 -31 8 -60 1 -118 -25 -715 -39 -887 -9 -102 -17 -214 -19
-250 -6 -134 -48 -478 -68 -560 -6 -25 -14 -65 -17 -90 -10 -67 -26 -88 -69
-96 -20 -4 -41 -10 -47 -14 -5 -3 -39 -17 -75 -29 -95 -34 -130 -72 -95 -101
12 -10 25 -10 63 -1 26 7 72 18 102 26 216 54 342 74 550 85 203 12 597 0 690
-21 25 -5 83 -13 130 -18 85 -9 164 -23 250 -43 25 -5 59 -12 75 -14 63 -9
330 -87 414 -122 l34 -13 -55 -57 c-67 -68 -79 -89 -67 -119 12 -33 30 -29 91
20 55 45 186 137 193 137 3 0 31 17 62 37 97 62 355 198 503 266 47 21 92 42
101 47 9 4 56 25 105 45 49 20 103 42 119 49 17 8 53 21 80 31 28 10 64 24 82
31 17 8 38 14 46 14 8 0 28 7 43 15 16 8 36 15 45 15 9 0 30 7 45 15 16 8 36
15 45 15 9 0 30 7 45 15 16 8 37 15 47 15 10 0 27 5 38 11 11 6 44 17 72 25
119 33 407 106 472 119 39 7 104 21 145 30 85 18 233 44 301 52 46 5 46 5 52
-28 3 -19 5 -101 3 -184 -3 -167 -15 -220 -75 -345 -57 -118 -75 -131 -398
-291 -159 -79 -305 -150 -324 -158 -47 -19 -113 -48 -184 -81 -91 -42 -126
-57 -175 -75 -25 -9 -58 -23 -75 -30 -16 -7 -50 -21 -75 -30 -25 -9 -58 -23
-73 -31 -16 -8 -33 -14 -39 -14 -5 0 -24 -6 -41 -14 -18 -7 -79 -30 -137 -51
-58 -20 -114 -41 -125 -45 -22 -9 -220 -69 -306 -94 -31 -9 -68 -16 -83 -16
-38 0 -59 -46 -31 -67 16 -12 39 -13 112 -8 l92 7 15 -54 c45 -163 72 -323 91
-533 17 -198 19 -333 5 -410 -5 -27 -14 -171 -20 -320 -5 -148 -12 -286 -15
-305 -3 -19 -10 -96 -15 -170 -29 -428 -144 -708 -385 -939 -137 -130 -343
-257 -498 -306 -44 -14 -59 -23 -63 -41 -8 -33 2 -44 41 -44 94 0 316 92 439
182 105 77 211 175 256 237 24 33 46 58 48 56 3 -2 8 -37 13 -77 17 -153 54
-340 104 -528 20 -74 40 -151 45 -170 8 -34 23 -81 43 -130 5 -14 13 -38 17
-55 10 -38 22 -69 83 -227 27 -70 46 -132 42 -137 -3 -6 -25 -16 -48 -22 -106
-28 -228 -98 -286 -164 -36 -41 -37 -64 -4 -76 17 -6 33 0 70 24 133 90 248
127 400 127 102 0 114 -2 170 -30 71 -35 163 -127 163 -162 0 -13 -9 -34 -20
-48 -11 -14 -20 -29 -20 -34 0 -5 -6 -17 -14 -25 -7 -9 -17 -26 -20 -38 -7
-22 -5 -23 51 -23 l59 0 24 43 c53 94 163 257 171 252 9 -6 1 -35 -11 -35 -4
0 -7 -17 -7 -38 0 -35 -33 -156 -54 -194 -14 -27 -12 -28 39 -28 47 0 48 0 67
45 27 66 49 52 31 -20 -6 -24 -4 -25 37 -25 40 0 45 3 61 37 13 28 20 33 26
22 5 -7 7 -24 3 -36 -5 -22 -2 -23 51 -23 l55 0 11 41 c6 23 12 98 13 168 2
131 -6 169 -45 220 -10 14 -23 43 -29 67 -6 23 -24 54 -39 69 -49 47 -79 33
-209 -99 -61 -63 -111 -119 -111 -124 0 -5 -9 -21 -21 -36 l-21 -26 -65 60
c-36 33 -71 60 -76 60 -6 0 -18 6 -26 14 -25 21 -110 46 -176 52 -43 4 -65 12
-77 26 -23 26 -23 45 2 119 42 124 49 135 94 157 24 12 50 22 59 22 9 0 18 4
22 9 3 5 22 15 43 21 41 13 59 19 115 44 21 9 42 16 48 16 6 0 25 6 42 14 18
7 73 28 122 45 317 113 303 103 287 188 -6 32 -17 83 -26 113 -8 30 -22 80
-30 110 -20 76 -73 260 -111 385 -6 22 -19 65 -28 95 -30 106 -60 206 -83 280
-34 113 -38 141 -23 151 8 5 46 9 86 9 40 0 94 4 120 9 62 13 413 21 882 21
l373 0 32 34 c42 47 198 320 312 546 39 79 154 321 154 326 0 4 38 89 86 191
13 28 24 54 24 57 0 5 14 37 60 141 5 11 19 45 30 75 12 30 26 64 30 75 5 11
19 45 30 75 12 30 26 64 31 75 23 56 42 106 60 160 11 33 24 69 29 80 16 36
41 109 57 168 15 54 15 59 -3 79 -19 20 -24 20 -224 14 -230 -7 -560 -41 -760
-78 -30 -6 -80 -14 -110 -18 -30 -4 -75 -13 -100 -19 -25 -6 -70 -15 -100 -21
-92 -18 -182 -38 -250 -55 -36 -8 -85 -20 -109 -25 -25 -6 -59 -14 -75 -20
-17 -5 -56 -16 -86 -24 -96 -26 -202 -57 -295 -87 -49 -16 -115 -37 -145 -46
-30 -8 -64 -20 -75 -24 -33 -14 -189 -70 -210 -76 -11 -2 -33 -11 -50 -18 -16
-7 -48 -20 -70 -28 -87 -33 -302 -125 -352 -151 -58 -30 -63 -25 -63 62 0 153
-52 488 -101 648 -14 48 -13 50 54 74 166 60 394 143 412 150 11 5 43 18 70
28 78 31 293 122 363 153 34 16 65 29 67 29 29 0 687 329 855 427 19 11 85 49
145 85 323 188 631 415 748 552 82 96 117 144 117 160 0 34 -44 63 -123 81
-66 15 -112 17 -310 12 -128 -2 -266 -10 -307 -15 -41 -6 -115 -16 -165 -22
-184 -23 -241 -31 -285 -40 -25 -5 -72 -14 -105 -21 -33 -6 -89 -17 -125 -24
-36 -8 -92 -19 -125 -25 -33 -6 -67 -14 -75 -18 -8 -3 -40 -11 -70 -18 -102
-23 -175 -42 -245 -64 -38 -12 -86 -25 -105 -30 -96 -24 -247 -74 -375 -122
-44 -17 -105 -40 -135 -51 -30 -12 -59 -25 -64 -29 -6 -4 -16 -8 -24 -8 -8 0
-28 -7 -45 -15 -18 -8 -54 -23 -82 -34 -139 -54 -607 -288 -660 -331 -50 -40
-119 -60 -140 -42 -23 19 -238 94 -340 119 -388 92 -675 130 -1060 139 -179 4
-253 1 -395 -15 -108 -12 -177 -16 -181 -10 -3 5 0 35 8 67 29 125 59 357 73
567 5 72 14 168 19 215 6 47 13 168 16 270 3 102 11 226 16 275 5 50 10 340
10 645 0 460 -2 570 -15 644 -9 49 -16 102 -16 118 0 30 -29 81 -58 106 -18
14 -20 14 -47 2z m5765 -4124 c0 -8 -4 -17 -9 -20 -5 -3 -12 -22 -16 -42 -3
-20 -10 -44 -14 -53 -22 -42 -41 -93 -41 -106 0 -8 -10 -36 -21 -62 -28 -61
-28 -62 -93 -223 -65 -162 -71 -177 -108 -258 -15 -34 -28 -64 -28 -67 0 -3
-14 -35 -31 -72 -17 -38 -37 -81 -44 -98 -56 -126 -239 -500 -255 -520 -4 -5
-24 -41 -44 -80 -54 -102 -83 -154 -123 -213 l-36 -52 -196 6 c-108 4 -304 2
-436 -4 -132 -7 -337 -14 -455 -18 -118 -3 -237 -10 -264 -15 -27 -5 -75 -9
-108 -9 -80 0 -98 -11 -98 -59 0 -34 28 -144 50 -196 5 -11 18 -54 29 -95 41
-145 53 -185 63 -215 13 -41 37 -123 48 -165 5 -19 18 -66 30 -105 11 -38 28
-95 36 -125 9 -30 22 -77 30 -105 15 -50 44 -175 44 -186 0 -3 -28 -16 -62
-27 -113 -38 -153 -52 -173 -62 -11 -5 -49 -18 -85 -30 -57 -18 -153 -54 -255
-95 -16 -7 -55 -22 -86 -34 -69 -27 -115 -70 -123 -116 -12 -60 -33 -43 -65
50 -11 33 -22 69 -24 80 -2 11 -9 33 -15 48 -7 16 -12 34 -12 41 0 7 -7 26
-15 42 -26 53 -15 65 142 140 257 122 287 139 297 166 9 25 3 36 -89 190 -15
26 -139 204 -196 283 -28 39 -58 81 -67 95 -9 14 -53 72 -96 130 -50 66 -79
114 -79 130 0 14 9 61 21 105 53 205 82 458 83 715 0 91 4 201 10 245 5 44 12
136 16 205 3 69 10 130 15 137 12 15 123 68 245 118 48 20 97 40 108 45 26 11
97 39 205 80 160 60 216 79 255 89 17 4 40 13 52 19 12 7 29 12 38 12 9 0 31
6 48 13 18 8 59 22 92 32 33 9 78 23 100 31 22 7 55 16 74 19 19 3 38 8 43 12
5 3 35 12 66 19 223 57 290 73 372 90 182 38 363 71 465 84 44 6 121 17 170
25 50 8 128 17 175 20 47 4 112 10 145 14 33 5 113 9 178 10 96 1 117 -2 117
-13z m-7078 -1053 c51 -14 72 -28 118 -73 80 -79 104 -146 98 -277 -2 -54 -9
-107 -15 -118 -6 -11 -19 -40 -29 -64 -10 -24 -37 -63 -60 -86 -59 -61 -110
-85 -182 -85 -85 0 -101 21 -142 185 -18 74 -21 105 -17 194 7 121 27 243 48
285 13 27 59 52 102 55 9 0 45 -7 79 -16z m4049 -1363 c145 -200 266 -376 318
-462 l22 -38 -173 -86 c-170 -84 -173 -85 -189 -65 -20 25 -74 262 -104 458
-15 104 -21 314 -8 327 18 17 43 -8 134 -134z m910 -1623 c-13 -13 -14 28 -3
88 7 39 7 39 10 -19 2 -32 -2 -64 -7 -69z m-25 -113 c-3 -8 -10 -14 -16 -14
-10 0 -4 43 9 65 8 13 14 -32 7 -51z"/>
<path d="M2348 4330 c-31 -4 -78 -17 -104 -29 -69 -33 -159 -127 -195 -206
-27 -58 -31 -76 -31 -158 -1 -103 12 -147 69 -234 37 -56 107 -109 185 -138
75 -28 214 -17 293 22 171 86 261 289 206 466 -29 96 -43 118 -114 183 -92 84
-182 112 -309 94z m189 -137 c29 -19 53 -69 53 -108 0 -95 -122 -161 -194
-104 -83 65 -69 176 27 220 45 20 73 18 114 -8z"/>
<path d="M4620 4209 c-135 -17 -262 -127 -309 -267 -66 -196 26 -398 224 -488
52 -24 70 -27 157 -26 89 2 105 5 166 34 116 57 183 140 216 267 20 79 20 119
0 184 -37 121 -108 208 -214 261 -72 37 -146 47 -240 35z m115 -129 c87 -54
79 -177 -15 -225 -38 -20 -63 -19 -109 4 -52 27 -61 42 -68 105 -6 55 -5 56
34 96 35 34 47 40 83 40 25 0 56 -8 75 -20z"/>
<path d="M3188 3714 c-29 -9 -33 -49 -8 -89 24 -39 66 -65 102 -65 30 1 99 49
115 80 11 22 10 28 -12 49 -20 21 -35 25 -102 27 -43 2 -86 1 -95 -2z"/>
<path d="M3195 3410 c-32 -8 -73 -25 -200 -85 -44 -21 -109 -51 -145 -68 -55
-25 -78 -30 -145 -31 -66 -1 -89 3 -130 24 -57 28 -81 28 -88 -1 -6 -24 54
-88 106 -112 32 -16 34 -19 51 -119 10 -57 24 -125 31 -153 7 -27 16 -69 20
-92 4 -24 11 -45 16 -49 5 -3 9 -14 9 -25 0 -27 93 -306 132 -394 59 -135 127
-264 166 -314 15 -19 32 -43 38 -53 25 -44 137 -145 191 -173 50 -25 69 -29
138 -29 75 0 86 3 151 38 154 84 296 274 414 556 35 85 70 184 70 201 0 6 6
25 14 42 8 18 19 57 25 87 6 30 19 98 30 150 11 52 22 130 26 173 6 68 10 79
33 95 36 24 102 88 102 99 0 5 -6 18 -14 28 -12 17 -15 18 -47 3 -96 -46 -211
-74 -261 -65 -18 4 -51 11 -74 15 -41 9 -161 66 -384 181 -142 74 -203 90
-275 71z m152 -128 c32 -16 137 -69 233 -119 197 -101 287 -133 372 -133 57 0
58 -1 58 -27 0 -64 -44 -280 -89 -438 -38 -136 -147 -384 -195 -445 -7 -8 -18
-28 -26 -44 -24 -47 -171 -189 -221 -214 -102 -49 -191 -21 -299 95 -76 82
-84 94 -176 283 -83 169 -74 147 -135 330 -48 146 -51 159 -46 229 3 40 10 78
16 84 6 6 11 18 11 26 0 23 82 201 116 254 22 33 44 51 89 73 182 85 205 89
292 46z m-537 -171 c0 -5 -8 -27 -19 -50 l-18 -42 -17 25 c-17 26 -21 58 -9
69 10 10 63 8 63 -2z"/>
<path d="M5060 3112 c-70 -23 -175 -96 -218 -151 -53 -67 -81 -127 -99 -212
-35 -169 37 -352 180 -459 109 -82 227 -112 361 -90 63 10 86 18 171 63 66 35
177 177 196 252 5 19 13 52 19 73 15 58 12 114 -10 183 -35 109 -60 152 -131
220 -67 66 -111 93 -198 124 -56 19 -209 18 -271 -3z m231 -101 c155 -53 227
-128 264 -278 16 -62 17 -79 6 -130 -19 -89 -59 -160 -118 -211 -84 -73 -122
-86 -239 -87 -59 0 -107 5 -115 11 -8 6 -26 14 -41 18 -43 10 -136 103 -170
170 -27 54 -31 70 -30 151 0 100 16 154 65 220 58 78 123 119 217 140 79 18
100 17 161 -4z"/>
<path d="M2018 1073 c-13 -33 -17 -352 -5 -498 9 -113 30 -259 52 -355 8 -36
15 -73 15 -83 0 -10 8 -45 18 -77 l17 -60 52 0 52 0 -5 38 c-3 20 -10 48 -15
62 -5 14 -13 54 -19 90 -5 36 -14 81 -20 100 -5 19 -10 53 -10 75 0 22 -5 56
-11 75 -5 19 -14 96 -19 170 -19 292 -32 446 -41 468 -12 31 -47 29 -61 -5z"/>
<path d="M3947 739 c-51 -30 -155 -362 -183 -584 l-6 -49 -18 24 c-10 13 -21
42 -24 64 -11 65 -62 220 -93 279 -46 90 -93 52 -66 -53 8 -30 20 -84 27 -120
8 -36 23 -108 35 -160 11 -52 21 -105 21 -117 0 -22 3 -23 104 -23 l104 0 11
73 c6 39 18 105 26 144 37 181 48 230 57 258 5 17 13 53 19 80 5 28 16 74 24
104 10 38 11 59 4 72 -11 22 -17 23 -42 8z"/>
<path d="M5485 596 c-16 -23 -34 -85 -55 -184 -5 -24 -17 -64 -25 -90 -8 -26
-33 -101 -55 -167 -21 -66 -42 -128 -45 -138 -6 -15 0 -17 52 -17 l59 0 38
123 c20 67 43 142 51 167 7 25 18 87 25 139 6 52 13 98 16 103 10 16 -8 68
-26 78 -16 8 -22 6 -35 -14z"/>
</g>
</svg>
